<svg xmlns="http://www.w3.org/2000/svg" width="80" height="30" viewBox="0,0,80,30"><path fill="#222" d="M64.31 25.33L64.29 25.30L64.18 25.19Q63.30 24.08 62.47 22.09L62.51 22.13L61.12 18.81L61.29 18.98Q60.17 21.45 59.77 22.29L59.83 22.35L59.69 22.20Q58.87 24.20 57.84 25.42L57.78 25.36L57.85 25.43Q57.59 25.41 57.10 25.48L57.03 25.42L57.03 25.41Q57.13 20.74 53.38 16.92L53.40 16.94L53.30 16.84Q52.20 15.69 50.90 14.73L50.93 14.77L50.98 14.81Q52.18 15.18 53.37 15.37L53.41 15.41L53.39 15.39Q57.25 18.54 58.18 22.55L58.07 22.44L58.11 22.49Q58.75 21.36 59.51 19.31L59.53 19.33L59.44 19.24Q60.25 16.77 60.62 15.93L60.76 16.08L61.59 16.01L61.71 16.12Q62.25 17.20 63.01 19.30L62.96 19.26L62.92 19.22Q63.80 21.59 64.22 22.49L64.11 22.39L64.20 22.48Q65.31 18.37 68.83 15.44L68.92 15.53L68.85 15.46Q69.61 15.38 71.37 15.01L71.40 15.05L71.36 15.00Q65.90 18.97 65.14 25.38L65.04 25.28L64.66 25.23L64.70 25.28Q64.42 25.19 64.20 25.22ZM66.23 26.91L67.55 27.02L67.46 26.94Q67.22 25.91 67.22 24.93L67.30 25.02L67.19 24.90Q67.17 22.81 68.08 20.72L68.08 20.73L68.10 20.75Q69.53 17.99 72.17 16.01L72.16 16.00L72.06 15.90Q71.36 16.15 70.16 16.37L70.09 16.30L70.11 16.32Q71.29 15.18 72.12 14.59L72.27 14.74L70.53 14.91L70.68 15.05Q69.80 15.11 68.95 15.21L68.99 15.25L69.01 15.27Q65.68 17.99 64.44 21.22L64.46 21.24L64.41 21.20Q64.00 19.81 63.12 17.07L63.10 17.04L63.05 16.99Q62.82 16.99 62.65 16.99L62.65 16.99L62.29 16.97L62.40 17.08Q62.28 16.84 61.77 15.71L61.75 15.69L60.43 15.70L60.40 15.67Q59.77 17.46 58.42 21.08L58.43 21.09L58.56 21.22Q57.55 18.70 55.57 16.59L55.74 16.76L55.62 16.63Q55.51 16.70 55.31 16.68L55.38 16.74L55.03 16.68L54.87 16.52Q54.43 16.11 53.28 15.09L53.31 15.11L53.22 15.02Q51.23 14.65 50.16 14.33L50.07 14.24L50.22 14.40Q57.10 19.17 56.85 25.80L56.72 25.67L56.84 25.79Q56.91 25.73 57.14 25.71L57.10 25.67L57.23 25.80Q57.34 25.65 57.46 25.65L57.44 25.63L57.41 25.60Q57.49 25.58 57.62 26.93L57.60 26.91L58.88 26.85L58.93 26.90Q60.45 24.94 61.89 21.25L62.01 21.36L61.95 21.31Q62.96 23.84 64.16 25.55L64.13 25.52L64.10 25.49Q64.25 25.41 64.42 25.42L64.57 25.57L64.53 25.54Q64.76 25.61 64.93 25.61L64.92 25.60L66.19 26.86Z"/><path d="M17 18 C33 18,59 19,71 9" stroke="#888" fill="none"/><path d="M9 10 C30 26,54 24,61 21" stroke="#666" fill="none"/><path fill="#111" d="M29.56 11.67L29.43 11.54L29.54 11.65Q28.24 11.69 27.62 11.79L27.62 11.78L27.66 11.82Q26.55 11.91 25.76 12.25L25.68 12.17L25.72 12.21Q23.49 13.16 23.42 16.17L23.46 16.21L23.42 16.17Q23.33 17.84 23.74 19.73L23.80 19.79L23.85 19.84Q24.30 22.32 26.63 23.08L26.64 23.09L26.65 23.10Q27.81 23.40 28.74 23.31L28.79 23.36L29.00 23.28L29.06 23.34Q29.30 23.46 29.43 23.48L29.25 23.30L29.37 23.43Q29.41 23.37 29.51 23.34L29.59 23.42L29.48 23.31Q31.24 23.21 32.12 22.84L32.13 22.85L29.74 20.49L29.71 20.46Q30.12 20.45 30.51 20.06L30.49 20.04L31.08 19.46L31.06 19.43Q32.08 20.60 33.35 21.93L33.41 21.99L33.41 21.99Q34.92 20.82 35.09 17.37L35.06 17.35L35.12 17.40Q35.14 16.78 35.14 16.20L35.23 16.29L35.08 16.14Q35.15 12.56 31.89 11.85L31.86 11.81L31.98 11.94Q31.13 11.73 29.52 11.63ZM37.69 25.77L37.72 25.81L37.73 25.82Q37.30 26.04 36.54 26.61L36.44 26.51L33.64 24.17L33.73 24.26Q32.03 24.93 29.28 24.95L29.35 25.02L29.31 24.98Q25.21 25.16 23.40 23.72L23.25 23.57L23.34 23.66Q22.29 22.61 22.00 20.70L21.99 20.70L21.95 20.65Q21.85 19.52 21.60 17.22L21.44 17.06L21.44 17.06Q21.53 16.69 21.46 15.56L21.56 15.66L21.53 15.64Q21.45 14.65 21.48 14.09L21.38 13.99L21.41 14.02Q21.55 12.13 22.67 11.12L22.58 11.03L22.49 10.94Q23.51 10.13 25.57 9.81L25.61 9.85L25.54 9.78Q27.19 9.60 29.05 9.65L29.00 9.60L29.09 9.69Q33.86 9.71 35.87 11.22L35.90 11.26L35.99 11.34Q37.22 12.56 37.05 15.71L37.03 15.69L37.22 15.88Q37.03 18.16 36.91 19.02L36.84 18.95L36.91 19.03Q36.46 21.88 34.97 23.37L35.02 23.42L34.99 23.39Q35.81 24.06 37.57 25.65ZM34.58 10.18L34.59 10.20L34.62 10.22Q33.26 9.69 29.07 9.37L29.15 9.45L29.06 9.36Q28.10 9.30 26.31 9.37L26.43 9.50L26.35 9.42Q23.63 9.56 22.19 10.84L22.20 10.85L22.20 10.84Q21.14 11.79 21.14 13.82L21.13 13.82L21.09 13.77Q21.17 14.39 21.27 15.50L21.36 15.59L21.31 15.53Q21.33 16.56 21.33 17.12L21.37 17.16L21.30 17.09Q21.54 18.36 21.78 20.66L21.68 20.55L21.77 20.65Q21.84 22.33 22.87 23.65L22.93 23.71L22.86 23.65Q23.13 24.23 23.91 24.97L23.90 24.95L23.95 25.00Q25.76 26.34 29.08 26.52L29.04 26.48L29.11 26.54Q29.26 26.48 30.81 26.55L30.73 26.47L30.83 26.57Q33.93 26.69 35.40 26.00L35.28 25.88L35.36 25.96Q35.84 26.32 38.88 28.63L39.05 28.79L38.94 28.69Q39.42 28.44 40.26 27.80L40.12 27.66L40.15 27.70Q39.64 27.31 39.13 26.87L39.07 26.81L38.05 25.91L38.07 25.84L38.04 25.81Q37.64 25.48 36.85 24.81L36.91 24.87L36.95 24.91Q38.18 23.30 38.18 20.39L38.24 20.44L38.23 20.43Q38.22 20.16 38.25 19.62L38.26 19.64L38.17 19.55Q38.25 19.07 38.25 18.80L38.32 18.87L38.24 18.79Q38.22 15.21 37.75 13.70L37.75 13.70L37.73 13.68Q37.46 12.82 36.90 12.13L36.89 12.13L36.89 12.12Q36.51 10.89 34.63 10.23ZM30.75 13.16L30.63 13.03L30.71 13.11Q33.27 13.01 34.44 14.03L34.39 13.98L34.42 14.01Q34.93 14.94 35.01 15.80L34.97 15.76L34.99 15.78Q35.04 16.59 34.99 17.47L34.86 17.33L34.83 17.31Q34.75 20.63 33.51 21.74L33.36 21.59L33.44 21.67Q32.53 20.76 30.91 19.00L31.10 19.18L31.03 19.11Q30.43 19.50 29.43 20.50L29.51 20.58L29.48 20.55Q29.82 20.92 30.56 21.67L30.64 21.76L30.53 21.72L30.58 21.77Q30.88 22.05 31.54 22.73L31.58 22.77L31.67 22.86Q30.88 22.88 29.39 23.08L29.49 23.18L29.10 23.13L28.82 23.12L28.73 23.05L28.76 23.08Q26.66 23.21 25.39 22.16L25.27 22.04L25.40 22.17Q24.61 20.70 24.64 18.69L24.60 18.66L24.65 18.70Q24.75 13.10 30.64 13.05Z"/><path fill="#333" d="M9.48 9.14L9.50 9.17L9.39 9.06Q10.69 12.27 11.06 15.60L10.98 15.52L10.97 15.50Q13.33 12.83 17.13 9.72L17.26 9.86L17.23 9.82Q19.27 9.62 20.96 9.10L20.88 9.02L16.71 12.68L16.83 12.80Q14.53 14.59 12.70 16.43L12.70 16.43L12.78 16.51Q17.83 22.32 21.08 25.35L21.07 25.34L21.06 25.33Q19.03 24.69 17.53 24.59L17.61 24.67L17.51 24.57Q13.92 21.23 11.15 17.48L11.02 17.35L11.03 17.36Q11.24 21.76 10.05 25.18L9.96 25.10L10.02 25.16Q9.80 25.10 9.48 25.23L9.53 25.28L9.45 25.32L9.53 25.40Q9.46 25.48 7.82 26.06L7.78 26.02L7.75 25.99Q9.62 21.75 9.40 16.95L9.34 16.89L9.46 17.01Q9.22 12.26 6.94 8.08L6.99 8.13L7.24 8.20L7.51 8.40L7.65 8.52L7.53 8.39Q8.14 8.79 9.56 9.23ZM9.65 8.95L9.64 8.95L9.55 8.85Q8.26 8.66 6.57 7.68L6.39 7.50L6.38 7.50Q9.23 12.27 9.23 18.02L9.26 18.06L9.22 18.01Q9.26 22.56 7.35 26.45L7.43 26.53L8.69 25.93L8.61 25.85Q8.44 26.59 8.00 27.42L7.94 27.36L7.96 27.38Q9.35 26.81 10.60 26.54L10.59 26.53L10.67 26.47L10.77 26.57Q10.82 26.42 11.19 26.32L11.25 26.39L11.20 26.33Q12.27 22.54 12.35 19.45L12.39 19.50L12.29 19.40Q13.60 20.98 14.78 22.18L14.89 22.29L14.81 22.21Q15.59 22.94 17.52 24.85L17.59 24.91L17.64 24.96L17.51 24.84Q18.29 25.50 19.49 26.53L19.42 26.46L19.32 26.36Q21.88 26.89 24.11 27.99L24.18 28.05L24.13 28.01Q18.12 22.46 14.11 17.69L14.23 17.81L14.23 17.82Q17.08 15.09 22.71 9.56L22.64 9.48L22.69 9.53Q20.98 10.20 19.68 10.44L19.64 10.40L19.74 10.50Q20.43 9.77 21.92 8.47L21.92 8.47L22.00 8.55Q19.37 9.47 17.21 9.59L17.24 9.62L17.22 9.59Q15.34 11.02 12.21 14.03L12.23 14.06L12.11 13.93Q11.98 12.39 11.62 10.75L11.50 10.63L11.50 10.63Q10.71 10.50 10.08 10.28L10.19 10.39L10.13 10.34Q9.99 9.85 9.62 8.92Z"/><path fill="#444" d="M44.46 16.68L44.56 16.78L44.49 16.71Q43.02 16.69 42.20 17.66L42.13 17.58L42.25 17.71Q41.48 18.72 41.41 20.19L41.40 20.18L41.36 20.14Q41.20 21.77 41.73 22.38L41.71 22.35L41.79 22.44Q42.45 23.20 43.95 23.10L44.08 23.23L44.05 23.20Q46.87 22.84 47.11 20.91L47.13 20.92L47.14 20.93Q47.34 20.54 47.34 20.03L47.21 19.90L47.32 20.01Q47.28 18.70 46.55 17.72L46.47 17.65L46.49 17.67Q45.67 16.63 44.42 16.65ZM47.57 23.18L47.53 23.13L47.63 23.23Q46.67 24.59 43.85 24.74L43.77 24.66L43.81 24.70Q41.20 24.88 40.15 24.17L40.00 24.02L40.06 24.08Q39.52 23.56 39.42 22.46L39.36 22.41L39.37 22.41Q39.38 21.74 39.51 20.54L39.39 20.43L39.46 20.50Q39.86 17.81 40.64 16.64L40.47 16.47L40.66 16.65Q41.72 15.07 44.19 15.09L44.03 14.94L44.04 14.95Q45.79 15.11 47.26 16.60L47.21 16.55L47.20 16.53Q47.25 12.77 48.28 8.59L48.23 8.54L48.26 8.56Q49.47 8.29 50.67 7.75L50.61 7.69L50.78 7.86Q48.99 11.99 48.82 16.49L48.94 16.62L48.78 16.45Q48.60 21.07 49.97 25.31L50.09 25.42L49.98 25.31Q49.06 25.05 47.96 24.81L47.82 24.68L47.92 24.77Q47.67 23.89 47.57 23.18ZM49.53 26.70L49.51 26.67L49.54 26.71Q50.96 27.15 52.60 28.13L52.53 28.06L52.45 27.98Q50.07 23.44 49.97 18.11L49.92 18.06L50.06 18.20Q49.94 12.89 51.93 8.15L51.94 8.16L51.93 8.15Q51.54 8.49 50.61 8.91L50.56 8.86L50.48 8.78Q50.70 8.04 51.09 7.26L51.18 7.35L51.20 7.37Q49.68 8.07 48.11 8.44L47.99 8.32L48.14 8.48Q47.20 12.18 47.03 16.10L46.86 15.93L46.92 15.99Q45.62 14.73 44.00 14.66L44.02 14.68L44.13 14.79Q41.83 14.62 40.61 15.96L40.60 15.95L40.60 15.95Q39.47 17.45 39.20 20.46L39.26 20.52L39.22 20.47Q39.08 22.27 39.08 22.54L39.14 22.60L39.06 22.52Q39.13 23.67 39.87 24.35L39.92 24.41L39.94 24.43Q40.09 24.58 40.21 24.63L40.11 24.53L40.52 25.06L40.48 25.02Q41.16 25.94 43.07 26.11L43.11 26.16L43.06 26.11Q44.47 26.19 45.35 26.24L45.28 26.17L45.34 26.23Q48.00 26.32 49.11 25.47L49.17 25.53L49.08 25.45Q49.20 25.93 49.49 26.66ZM45.59 18.25L45.47 18.14L45.40 18.07Q46.09 18.10 46.63 18.42L46.64 18.42L46.71 18.49Q46.96 19.26 47.01 19.92L47.02 19.93L46.98 19.89Q47.26 22.69 44.03 22.91L43.96 22.84L44.00 22.88Q43.51 22.98 42.80 22.81L42.84 22.85L42.73 22.74Q42.60 22.36 42.55 22.02L42.57 22.04L42.63 22.10Q42.45 21.53 42.47 21.13L42.62 21.28L42.47 21.13Q42.75 19.01 44.44 18.37L44.38 18.32L44.43 18.36Q45.02 18.10 45.46 18.12Z"/></svg>